<?xml version="1.0" encoding="utf-8"?>
<!-- Generator: Adobe Illustrator 16.0.0, SVG Export Plug-In . SVG Version: 6.00 Build 0)  -->
<!DOCTYPE svg PUBLIC "-//W3C//DTD SVG 1.1//EN" "http://www.w3.org/Graphics/SVG/1.1/DTD/svg11.dtd">
<svg version="1.1" id="Layer_1" xmlns="http://www.w3.org/2000/svg" xmlns:xlink="http://www.w3.org/1999/xlink" x="0px" y="0px"
	 width="4000px" height="4000px" viewBox="0 0 4000 4000" enable-background="new 0 0 4000 4000" xml:space="preserve">
<g>
	<path fill="#3D6747" d="M760.356,1741.718c-29.133-17.927-45.963-48.07-62.835-76.631c-6.949-14.197-14.896-29.281-20.868-44.294
		c-5.567-14.821-11.348-30.18-16.597-45.612c-19.062-61.328-29.049-124.253-32.959-187.894
		c-5.865-126.701,14.322-255.902,62.433-378.336c47.941-122.199,122.4-238.748,220.513-335.762
		c97.495-97.574,218.024-173.719,344.975-224.477c127.052-50.455,260.546-78.527,389.407-81.548
		c16.213-1.417,32.257-1.293,48.152-0.593l47.708,1.402c31.813,1.541,63.433,2.48,94.158,7.6c30.876,4.312,61.605,8.5,92.012,13.687
		c30.092,6.041,59.627,13.886,89.081,21.293c59.354,13.686,115.069,36.132,170.617,57.247
		c55.04,22.373,107.442,49.969,158.974,77.753c25.392,14.632,50.125,30.684,74.521,46.984
		c24.542,15.853,48.577,32.609,72.059,49.958c46.069,37.112,90.888,75.268,132.367,118.788
		c-60.501,10.826-117.685,16.244-173.57,20.634c-56.293,6.458-110.988,11.972-164.139,15.082
		c-53.634,7.592-105.549,10.129-156.398,16.27c-50.68,7.645-100.447,9.872-148.324,19.065
		c-192.697,27.326-361.294,69.846-499.143,138.486c-137.998,69.028-252.365,157.396-374.276,281.063
		c-61.074,61.529-119.894,133.102-180.838,212.622c-29.73,39.906-60.925,81.993-89.738,127.062
		c-14.748,22.465-28.987,45.563-43.074,70.104c-6.184,11.74-13.855,24.789-19.4,37.514c-2.955,6.369-5.908,13.148-8.776,20.343
		C764.267,1725.95,762.036,1733.418,760.356,1741.718"/>
	<path fill="#3D6747" d="M3542.353,1693.927l-26.967-2.47c-13.623-38.016-24.246-75.22-34.598-111.339
		c-13.048-35.542-21.248-71.125-34.063-104.814c-6.523-16.84-11.688-33.669-17.68-50.226c-5.186-16.571-13.112-32.349-19.104-48.104
		c-12.24-32.011-26.669-61.899-41.117-91.233c-29.435-57.555-61.798-110.235-98.578-157.208
		c-38.423-46.163-79.012-88.255-125.336-125.737c-88.527-73.059-196.371-131.437-316.795-183.835c0,0,0-0.262-0.257-0.262
		l-125.29-131.711c-43.052-45.063-88.273-83.908-128.308-116.507c20.144-4.067,40.544-7.871,61.01-10.877
		c80.644-11.931,162.901-12.465,245.69-2.975c82.56,9.242,165.646,29.069,245.97,61.942
		c80.073,32.567,157.44,78.701,225.825,137.375c68.638,58.394,128.03,129.271,172.466,207.735
		c45.198,78.188,71.61,164.3,87.655,248.499C3638.232,1382.717,3614.541,1549.156,3542.353,1693.927"/>
	<path fill="#3D6747" d="M3457.842,2113.748c-1.358,10.838-2.741,21.974-4.398,33.107l-590.54-84.17l-365.563,631.365
		l145.773-66.008l14.958,22.534l-155.229,140.952l-35.72,32.325l-218.451,198.505l118.191,638.693H1868.4l105.973-573.274
		l-697.617-286.739l-174.59,45.604c-16.088-7.577-32.152-15.735-47.961-24.138l153.086-49.971l-257.7-105.92l8.479-25.801
		l78.986,19.82L577.82,2136.556c0.808-3.81,1.892-7.601,3.252-11.399l520.03,551.77l907.019,228.66l1.402-7.875l-533.102-804.073
		l-594.108-367.401c0.552-1.08,1.124-1.898,1.659-2.996l5.161-9.22c4.082-6.802,7.928-13.588,12.284-20.393l491.068,273.743
		l-116.792-176.525l-2.486-0.283l0.553-2.691l-186.854-281.591l21.781-16.304l178.693,216.424l92.883-548.267
		c14.705-10.613,29.155-20.367,43.86-29.866l-79.284,647.393l374.832,454.01l380.503-696.248l-135.066-589.539
		c10.352-1.925,20.973-3.264,31.875-4.891h0.788l135.66,533.614l37.333-67.914l24.503,11.388l-118.192,298.191l301.792-86.884
		L2698.66,993.84l24.544,11.955l-289.573,605.563l122.272-35.052l8.478,25.789l-519.754,193.374l-222.001,558.853l378.358,457.856
		l10.093,12.199l65.364-29.851l269.134-410.613l-268.304-435.543l22.887-14.959l281.396,395.4l425.723-649.286l-19.867-650.4
		l10.349-0.516c6.014,4.078,11.964,7.828,17.68,11.931l34.359,574.066l205.129-312.822c5.694,10.012,11.41,20.656,16.85,31.496
		c1.915,4.067,4.082,8.149,6.014,12.238l-380.82,657.95L3457.842,2113.748z"/>
	<path fill="#3D6747" d="M3874.384,2343.205c-9.242,57.537-25.052,115.365-48.218,171.875
		c-24.225,55.938-55.568,109.991-93.414,158.865c-9.815,11.944-20.188,23.353-30.216,35.034l-15.28,17.37l-15.513,14.65
		c-20.678,19.039-41.417,38.314-62.646,56.78c-20.994,18.74-44.965,33.37-67.854,49.683l-34.572,23.638
		c-11.709,7.569-24.543,13.569-36.486,20.351c-96.729,55.67-202.128,88.544-306.469,106.432
		c-104.612,18.197-209.461,19.845-310.568,5.744c-25.289-4.077-50.619-8.716-75.396-13.338c-24.84-6.494-49.32-11.396-73.843-19.271
		c-48.452-14.646-95.583-33.104-140.846-58.914l4.079-26.871c95.096-27.436,184.707-53.009,269.984-81.49
		c85.233-28.777,165.875-60.004,240.484-95.299c74.102-36.115,144.143-73.326,204.873-119.255
		c7.905-5.39,16.088-10.011,23.419-15.981l21.545-18.198l22.038-17.65c7.373-5.71,14.958-11.153,20.993-17.932
		c13.069-13.313,26.669-25.8,40.292-38.549l10.115-9.252l7.883-8.956c5.186-5.962,10.899-11.661,15.768-17.633
		c19.639-24.709,37.083-50.809,52.572-79.323c14.749-28.741,27.797-59.99,38.4-93.681c9.882-33.907,18.785-70.03,24.841-108.336
		c5.143-38.313,10.329-78.203,11.71-119.477c2.997-56.215,2.721-114.324,0.256-173.825l34.02-62.434l32.728-66.005
		c18.233-36.381,33.769-74.116,46.56-112.666c22.355,31.748,42.799,64.884,62.096,98.824
		c49.044,88.008,87.167,183.281,111.71,286.228c10.645,51.604,20.146,104.807,22.59,159.67
		C3884.477,2229.147,3882.843,2285.889,3874.384,2343.205"/>
	<path fill="#3D6747" d="M1602.602,3179.324l-2.697,26.851c-127.478,20.377-255.235,20.679-382.989,10.883
		c-128.032-10.593-256.02-32.873-382.714-71.138c-126.374-38.56-252.236-91.787-370.175-171.894
		c-58.843-40.216-116.323-86.379-167.238-142.032c-25.605-27.978-50.171-57.582-72.761-89.05
		c-22.843-31.794-42.223-66.278-60.2-101.864c-35.126-71.698-59.372-150.158-69.998-226.191
		c-11.433-77.395-10.901-157.487,1.913-234.622c13.09-76.853,37.04-150.729,69.722-217.515
		c33.235-66.823,72.739-128.201,117.661-182.224c76.054-92.595,164.285-167.535,258.529-228.914
		c4.356,18.739,9.265,37.21,14.957,55.398l1.107,2.7c5.141,15.503,10.878,30.693,16.617,45.643l1.891,4.88
		c6.014,15.756,13.069,29.876,19.36,42.083l6.543,13.836l4.611,7.873c10.116,16.861,21.762,37.208,37.868,56.786
		c-40.864,56.767-77.351,114.34-107.589,171.619c-49.343,93.384-79.262,187.097-86.339,275.366
		c-3.571,44.52-1.679,87.979,5.697,131.687c7.648,44.802,18.805,84.988,36.762,123.862c18.529,38.778,41.69,77.104,71.398,113.745
		c30.219,36.122,64.813,71.979,104.296,105.376c78.731,67.346,172.699,127.893,273.233,182.748
		C1143.88,2996.012,1369.448,3085.358,1602.602,3179.324"/>
</g>
</svg>
